<mxfile host="app.diagrams.net" agent="Mozilla/5.0 (Windows NT 10.0; Win64; x64) AppleWebKit/537.36 (KHTML, like Gecko) Chrome/131.0.0.0 Safari/537.36" version="26.0.6">
  <diagram name="Page-1" id="XdMdWgL01NjDZeg2HUlv">
    <mxGraphModel dx="502" dy="261" grid="1" gridSize="10" guides="1" tooltips="1" connect="1" arrows="1" fold="1" page="1" pageScale="1" pageWidth="827" pageHeight="1169" math="0" shadow="0">
      <root>
        <mxCell id="0" />
        <mxCell id="1" parent="0" />
        <mxCell id="CLbuee4btlxWNebHDQdX-6" style="edgeStyle=orthogonalEdgeStyle;rounded=0;orthogonalLoop=1;jettySize=auto;html=1;exitX=0;exitY=1;exitDx=0;exitDy=0;" edge="1" parent="1">
          <mxGeometry relative="1" as="geometry">
            <mxPoint x="289.5988888888889" y="250.1111111111111" as="targetPoint" />
            <mxPoint x="289.71" y="250" as="sourcePoint" />
          </mxGeometry>
        </mxCell>
        <mxCell id="CLbuee4btlxWNebHDQdX-1" value="S" style="text;html=1;align=center;verticalAlign=middle;whiteSpace=wrap;rounded=0;" vertex="1" parent="1">
          <mxGeometry x="310" y="230" width="20" height="20" as="geometry" />
        </mxCell>
        <mxCell id="CLbuee4btlxWNebHDQdX-2" value="a" style="text;html=1;align=center;verticalAlign=middle;whiteSpace=wrap;rounded=0;" vertex="1" parent="1">
          <mxGeometry x="170" y="390" width="20" height="20" as="geometry" />
        </mxCell>
        <mxCell id="CLbuee4btlxWNebHDQdX-3" value="S" style="text;html=1;align=center;verticalAlign=middle;whiteSpace=wrap;rounded=0;" vertex="1" parent="1">
          <mxGeometry x="269.71" y="280" width="20" height="20" as="geometry" />
        </mxCell>
        <mxCell id="CLbuee4btlxWNebHDQdX-4" value="b" style="text;html=1;align=center;verticalAlign=middle;whiteSpace=wrap;rounded=0;" vertex="1" parent="1">
          <mxGeometry x="390" y="390" width="20" height="20" as="geometry" />
        </mxCell>
        <mxCell id="CLbuee4btlxWNebHDQdX-5" value="S" style="text;html=1;align=center;verticalAlign=middle;whiteSpace=wrap;rounded=0;" vertex="1" parent="1">
          <mxGeometry x="450" y="280" width="20" height="20" as="geometry" />
        </mxCell>
        <mxCell id="CLbuee4btlxWNebHDQdX-7" value="" style="endArrow=none;html=1;rounded=0;exitX=0.5;exitY=0;exitDx=0;exitDy=0;" edge="1" parent="1" source="CLbuee4btlxWNebHDQdX-3">
          <mxGeometry width="50" height="50" relative="1" as="geometry">
            <mxPoint x="329.71" y="290" as="sourcePoint" />
            <mxPoint x="279.71" y="250" as="targetPoint" />
          </mxGeometry>
        </mxCell>
        <mxCell id="CLbuee4btlxWNebHDQdX-8" value="" style="endArrow=none;html=1;rounded=0;exitX=0.5;exitY=0;exitDx=0;exitDy=0;" edge="1" parent="1" source="CLbuee4btlxWNebHDQdX-2">
          <mxGeometry width="50" height="50" relative="1" as="geometry">
            <mxPoint x="270" y="290" as="sourcePoint" />
            <mxPoint x="180" y="250" as="targetPoint" />
          </mxGeometry>
        </mxCell>
        <mxCell id="CLbuee4btlxWNebHDQdX-9" value="" style="endArrow=none;html=1;rounded=0;exitX=0.5;exitY=0;exitDx=0;exitDy=0;" edge="1" parent="1" source="CLbuee4btlxWNebHDQdX-4">
          <mxGeometry width="50" height="50" relative="1" as="geometry">
            <mxPoint x="370" y="290" as="sourcePoint" />
            <mxPoint x="400" y="250" as="targetPoint" />
          </mxGeometry>
        </mxCell>
        <mxCell id="CLbuee4btlxWNebHDQdX-10" value="" style="endArrow=none;html=1;rounded=0;exitX=0.5;exitY=0;exitDx=0;exitDy=0;" edge="1" parent="1" source="CLbuee4btlxWNebHDQdX-5">
          <mxGeometry width="50" height="50" relative="1" as="geometry">
            <mxPoint x="390" y="290" as="sourcePoint" />
            <mxPoint x="460" y="250" as="targetPoint" />
            <Array as="points">
              <mxPoint x="460" y="280" />
              <mxPoint x="460" y="270" />
            </Array>
          </mxGeometry>
        </mxCell>
        <mxCell id="CLbuee4btlxWNebHDQdX-11" value="" style="endArrow=none;html=1;rounded=0;" edge="1" parent="1">
          <mxGeometry width="50" height="50" relative="1" as="geometry">
            <mxPoint x="180" y="250" as="sourcePoint" />
            <mxPoint x="460" y="250" as="targetPoint" />
            <Array as="points">
              <mxPoint x="320" y="250" />
            </Array>
          </mxGeometry>
        </mxCell>
        <mxCell id="CLbuee4btlxWNebHDQdX-12" value="" style="endArrow=none;html=1;rounded=0;entryX=0.504;entryY=0.894;entryDx=0;entryDy=0;entryPerimeter=0;" edge="1" parent="1" target="CLbuee4btlxWNebHDQdX-1">
          <mxGeometry width="50" height="50" relative="1" as="geometry">
            <mxPoint x="320" y="250" as="sourcePoint" />
            <mxPoint x="380" y="240" as="targetPoint" />
          </mxGeometry>
        </mxCell>
        <mxCell id="CLbuee4btlxWNebHDQdX-32" style="edgeStyle=orthogonalEdgeStyle;rounded=0;orthogonalLoop=1;jettySize=auto;html=1;exitX=0;exitY=1;exitDx=0;exitDy=0;" edge="1" parent="1">
          <mxGeometry relative="1" as="geometry">
            <mxPoint x="279.8888888888889" y="312.1111111111111" as="targetPoint" />
            <mxPoint x="280" y="312" as="sourcePoint" />
          </mxGeometry>
        </mxCell>
        <mxCell id="CLbuee4btlxWNebHDQdX-33" value="b" style="text;html=1;align=center;verticalAlign=middle;whiteSpace=wrap;rounded=0;" vertex="1" parent="1">
          <mxGeometry x="200" y="390" width="20" height="20" as="geometry" />
        </mxCell>
        <mxCell id="CLbuee4btlxWNebHDQdX-34" value="S" style="text;html=1;align=center;verticalAlign=middle;whiteSpace=wrap;rounded=0;" vertex="1" parent="1">
          <mxGeometry x="250" y="342" width="20" height="20" as="geometry" />
        </mxCell>
        <mxCell id="CLbuee4btlxWNebHDQdX-35" value="a" style="text;html=1;align=center;verticalAlign=middle;whiteSpace=wrap;rounded=0;" vertex="1" parent="1">
          <mxGeometry x="310" y="390" width="20" height="20" as="geometry" />
        </mxCell>
        <mxCell id="CLbuee4btlxWNebHDQdX-36" value="S" style="text;html=1;align=center;verticalAlign=middle;whiteSpace=wrap;rounded=0;" vertex="1" parent="1">
          <mxGeometry x="360" y="342" width="20" height="20" as="geometry" />
        </mxCell>
        <mxCell id="CLbuee4btlxWNebHDQdX-37" value="" style="endArrow=none;html=1;rounded=0;exitX=0.5;exitY=0;exitDx=0;exitDy=0;" edge="1" parent="1" source="CLbuee4btlxWNebHDQdX-34">
          <mxGeometry width="50" height="50" relative="1" as="geometry">
            <mxPoint x="310" y="352" as="sourcePoint" />
            <mxPoint x="260" y="312" as="targetPoint" />
          </mxGeometry>
        </mxCell>
        <mxCell id="CLbuee4btlxWNebHDQdX-38" value="" style="endArrow=none;html=1;rounded=0;exitX=0.5;exitY=0;exitDx=0;exitDy=0;" edge="1" parent="1" source="CLbuee4btlxWNebHDQdX-33">
          <mxGeometry width="50" height="50" relative="1" as="geometry">
            <mxPoint x="300" y="352" as="sourcePoint" />
            <mxPoint x="210" y="312" as="targetPoint" />
          </mxGeometry>
        </mxCell>
        <mxCell id="CLbuee4btlxWNebHDQdX-39" value="" style="endArrow=none;html=1;rounded=0;exitX=0.5;exitY=0;exitDx=0;exitDy=0;" edge="1" parent="1" source="CLbuee4btlxWNebHDQdX-35">
          <mxGeometry width="50" height="50" relative="1" as="geometry">
            <mxPoint x="290" y="352" as="sourcePoint" />
            <mxPoint x="320" y="312" as="targetPoint" />
          </mxGeometry>
        </mxCell>
        <mxCell id="CLbuee4btlxWNebHDQdX-40" value="" style="endArrow=none;html=1;rounded=0;exitX=0.5;exitY=0;exitDx=0;exitDy=0;" edge="1" parent="1" source="CLbuee4btlxWNebHDQdX-36">
          <mxGeometry width="50" height="50" relative="1" as="geometry">
            <mxPoint x="300" y="352" as="sourcePoint" />
            <mxPoint x="370" y="312" as="targetPoint" />
          </mxGeometry>
        </mxCell>
        <mxCell id="CLbuee4btlxWNebHDQdX-41" value="" style="endArrow=none;html=1;rounded=0;" edge="1" parent="1">
          <mxGeometry width="50" height="50" relative="1" as="geometry">
            <mxPoint x="210" y="312" as="sourcePoint" />
            <mxPoint x="370" y="312" as="targetPoint" />
            <Array as="points">
              <mxPoint x="290" y="312" />
            </Array>
          </mxGeometry>
        </mxCell>
        <mxCell id="CLbuee4btlxWNebHDQdX-42" value="" style="endArrow=none;html=1;rounded=0;entryX=0.5;entryY=1;entryDx=0;entryDy=0;" edge="1" parent="1">
          <mxGeometry width="50" height="50" relative="1" as="geometry">
            <mxPoint x="290" y="312" as="sourcePoint" />
            <mxPoint x="290" y="312.00000000000006" as="targetPoint" />
          </mxGeometry>
        </mxCell>
        <mxCell id="CLbuee4btlxWNebHDQdX-43" value="" style="endArrow=none;html=1;rounded=0;entryX=0.5;entryY=1;entryDx=0;entryDy=0;" edge="1" parent="1" target="CLbuee4btlxWNebHDQdX-3">
          <mxGeometry width="50" height="50" relative="1" as="geometry">
            <mxPoint x="280" y="312" as="sourcePoint" />
            <mxPoint x="279.71000000000004" y="310" as="targetPoint" />
          </mxGeometry>
        </mxCell>
        <mxCell id="CLbuee4btlxWNebHDQdX-44" value="" style="endArrow=none;html=1;rounded=0;entryX=0.5;entryY=1;entryDx=0;entryDy=0;exitX=0.5;exitY=0;exitDx=0;exitDy=0;" edge="1" parent="1" source="CLbuee4btlxWNebHDQdX-45" target="CLbuee4btlxWNebHDQdX-34">
          <mxGeometry width="50" height="50" relative="1" as="geometry">
            <mxPoint x="259" y="400" as="sourcePoint" />
            <mxPoint x="259" y="362" as="targetPoint" />
          </mxGeometry>
        </mxCell>
        <mxCell id="CLbuee4btlxWNebHDQdX-45" value="..." style="text;html=1;align=center;verticalAlign=middle;whiteSpace=wrap;rounded=0;" vertex="1" parent="1">
          <mxGeometry x="250" y="390" width="20" height="20" as="geometry" />
        </mxCell>
        <mxCell id="CLbuee4btlxWNebHDQdX-46" value="" style="endArrow=none;html=1;rounded=0;entryX=0.5;entryY=1;entryDx=0;entryDy=0;exitX=0.5;exitY=0;exitDx=0;exitDy=0;" edge="1" parent="1" source="CLbuee4btlxWNebHDQdX-47" target="CLbuee4btlxWNebHDQdX-36">
          <mxGeometry width="50" height="50" relative="1" as="geometry">
            <mxPoint x="369" y="410" as="sourcePoint" />
            <mxPoint x="369" y="372" as="targetPoint" />
          </mxGeometry>
        </mxCell>
        <mxCell id="CLbuee4btlxWNebHDQdX-47" value="..." style="text;html=1;align=center;verticalAlign=middle;whiteSpace=wrap;rounded=0;" vertex="1" parent="1">
          <mxGeometry x="360" y="390" width="20" height="20" as="geometry" />
        </mxCell>
        <mxCell id="CLbuee4btlxWNebHDQdX-48" value="" style="endArrow=none;html=1;rounded=0;exitX=0.5;exitY=0;exitDx=0;exitDy=0;entryX=0.5;entryY=1;entryDx=0;entryDy=0;" edge="1" parent="1" source="CLbuee4btlxWNebHDQdX-49" target="CLbuee4btlxWNebHDQdX-5">
          <mxGeometry width="50" height="50" relative="1" as="geometry">
            <mxPoint x="459" y="348" as="sourcePoint" />
            <mxPoint x="460" y="308" as="targetPoint" />
          </mxGeometry>
        </mxCell>
        <mxCell id="CLbuee4btlxWNebHDQdX-49" value="..." style="text;html=1;align=center;verticalAlign=middle;whiteSpace=wrap;rounded=0;" vertex="1" parent="1">
          <mxGeometry x="450" y="390" width="20" height="20" as="geometry" />
        </mxCell>
      </root>
    </mxGraphModel>
  </diagram>
</mxfile>
